<?xml version="1.0" standalone="no"?>
<!DOCTYPE svg PUBLIC "-//W3C//DTD SVG 1.0//EN" "http://www.w3.org/TR/2001/REC-SVG-20010904/DTD/svg10.dtd">
<svg xmlns="http://www.w3.org/2000/svg" xmlns:xlink="http://www.w3.org/1999/xlink" id="body_1" width="196" height="81">

<g transform="matrix(0.092889905 0 0 0.092889905 1.2098593 -0)">
	<g transform="matrix(0.1 0 -0 -0.1 0 872)">
        <path d="M2070 7403C 2051 7401 1974 7388 1899 7375C 1283 7264 727 6893 380 6360C 241 6146 109 5823 61 5580C 25 5396 17 5310 17 5115C 17 4841 47 4651 131 4395C 392 3600 1065 3013 1899 2854C 2084 2818 2411 2809 2609 2834C 3004 2885 3379 3037 3704 3278C 3822 3366 4015 3551 4107 3665C 4314 3922 4476 4245 4554 4559C 4607 4770 4614 4839 4614 5115C 4614 5391 4607 5460 4554 5671C 4476 5985 4314 6308 4107 6565C 4015 6679 3822 6864 3704 6952C 3382 7191 3006 7344 2617 7395C 2509 7409 2172 7414 2070 7403zM2612 7264C 2807 7237 3021 7178 3182 7107L3182 7107L3235 7083L3183 7076C 3154 7071 3128 7064 3124 7059C 3121 7054 3111 7050 3102 7050C 3066 7050 2794 6892 2760 6851C 2757 6847 2730 6825 2700 6800C 2644 6755 2407 6521 2357 6463C 2342 6445 2324 6430 2316 6430C 2309 6430 2290 6446 2275 6466C 2227 6529 1987 6762 1902 6829C 1811 6901 1713 6970 1703 6970C 1700 6970 1689 6976 1681 6983C 1672 6990 1636 7009 1600 7024C 1564 7039 1528 7055 1519 7060C 1510 7064 1481 7072 1455 7076L1455 7076L1407 7083L1433 7097C 1566 7166 1858 7245 2085 7273C 2175 7284 2509 7279 2612 7264zM1480 6949C 1536 6930 1669 6865 1680 6851C 1683 6848 1705 6831 1730 6815C 1754 6798 1781 6778 1790 6770C 1799 6762 1829 6737 1857 6716C 1904 6680 2145 6441 2213 6362C 2242 6328 2240 6312 2203 6275C 2188 6259 2092 6136 2062 6093C 1978 5972 1954 5938 1927 5898C 1896 5852 1895 5851 1831 5846C 1752 5839 1603 5822 1460 5804C 1402 5797 1344 5790 1331 5788C 1308 5785 1304 5792 1269 5902C 1249 5967 1220 6070 1205 6132C 1191 6194 1175 6259 1170 6275C 1157 6320 1140 6500 1140 6599C 1140 6789 1179 6893 1271 6949C 1316 6977 1400 6977 1480 6949zM3356 6954C 3495 6888 3534 6650 3465 6285C 3437 6134 3371 5898 3333 5813C 3320 5782 3297 5770 3286 5789C 3283 5793 3248 5800 3208 5804C 3168 5807 3077 5817 3005 5825C 2934 5833 2845 5843 2809 5846L2809 5846L2743 5851L2684 5938C 2608 6049 2464 6244 2428 6284C 2413 6301 2400 6319 2400 6324C 2400 6354 2693 6649 2828 6755C 2835 6760 2846 6770 2853 6775C 2894 6809 2940 6840 2949 6840C 2955 6840 2960 6844 2960 6848C 2960 6852 2986 6869 3018 6885C 3049 6902 3077 6918 3080 6921C 3083 6924 3114 6936 3150 6948C 3230 6973 3310 6976 3356 6954zM1057 6838C 1010 6700 1016 6483 1074 6200C 1083 6159 1098 6094 1109 6055C 1120 6017 1136 5958 1145 5925C 1153 5892 1164 5858 1169 5849C 1175 5840 1182 5817 1185 5797C 1191 5765 1190 5762 1163 5757C 972 5719 716 5647 623 5604C 606 5597 589 5590 586 5590C 572 5590 401 5505 362 5479C 338 5463 317 5450 314 5450C 308 5450 276 5421 210 5357C 177 5324 150 5302 150 5307C 150 5311 157 5361 165 5418C 234 5901 457 6335 816 6680C 909 6770 1060 6893 1068 6885C 1070 6883 1065 6862 1057 6838zM3815 6688C 4125 6398 4357 5985 4446 5562C 4475 5427 4488 5283 4469 5315C 4454 5341 4386 5403 4335 5438C 4313 5453 4293 5468 4290 5471C 4281 5482 4147 5551 4085 5576C 4052 5590 4016 5605 4005 5609C 3970 5625 3867 5658 3790 5680C 3749 5691 3693 5707 3665 5715C 3638 5723 3591 5732 3562 5736C 3533 5740 3507 5747 3504 5751C 3501 5756 3487 5760 3473 5760C 3449 5760 3448 5762 3455 5798C 3459 5818 3468 5849 3475 5865C 3483 5882 3494 5913 3499 5935C 3505 5957 3517 6004 3526 6040C 3535 6076 3546 6114 3551 6125C 3560 6146 3584 6285 3601 6410C 3616 6518 3607 6775 3586 6822C 3555 6893 3566 6894 3649 6830C 3693 6796 3767 6732 3815 6688zM2332 6221C 2334 6217 2348 6198 2363 6179C 2431 6096 2590 5878 2590 5868C 2590 5866 2467 5865 2317 5865L2317 5865L2043 5865L2078 5915C 2097 5943 2152 6016 2199 6079C 2246 6142 2291 6201 2299 6212C 2313 6231 2326 6235 2332 6221zM2586 5740L2678 5740L2724 5668C 2801 5545 2876 5418 2911 5350C 2930 5314 2947 5283 2950 5280C 2959 5271 3031 5125 3031 5115C 3031 5105 2959 4959 2950 4950C 2947 4947 2930 4916 2911 4880C 2875 4809 2801 4684 2727 4568L2727 4568L2680 4493L2462 4488C 2343 4485 2180 4485 2100 4489L2100 4489L1955 4495L1898 4585C 1866 4635 1833 4689 1825 4705C 1817 4722 1799 4753 1785 4775C 1772 4797 1758 4822 1754 4830C 1750 4838 1733 4868 1717 4895C 1701 4923 1668 4983 1644 5029C 1608 5098 1602 5116 1611 5134C 1617 5145 1629 5171 1638 5190C 1647 5209 1676 5262 1703 5308C 1729 5354 1750 5395 1750 5400C 1750 5405 1756 5415 1763 5422C 1776 5435 1792 5461 1825 5525C 1833 5542 1866 5596 1898 5645L1898 5645L1955 5735L2085 5741C 2157 5745 2278 5746 2355 5744C 2432 5742 2536 5740 2586 5740zM1800 5719C 1800 5709 1779 5670 1713 5561C 1701 5541 1688 5518 1684 5510C 1679 5502 1654 5458 1628 5412C 1602 5366 1580 5327 1580 5325C 1580 5323 1570 5305 1559 5285C 1539 5251 1537 5250 1524 5268C 1517 5278 1508 5299 1505 5313C 1501 5328 1494 5340 1489 5340C 1484 5340 1480 5345 1480 5352C 1480 5358 1471 5382 1461 5404C 1450 5427 1430 5474 1415 5510C 1401 5546 1385 5584 1380 5595C 1353 5653 1350 5669 1368 5679C 1377 5684 1421 5691 1465 5695C 1509 5699 1586 5708 1635 5715C 1752 5732 1800 5733 1800 5719zM2997 5716C 3056 5708 3132 5699 3165 5695C 3288 5683 3294 5679 3265 5624C 3257 5608 3250 5588 3250 5580C 3250 5571 3244 5556 3236 5545C 3229 5534 3219 5514 3215 5500C 3209 5476 3157 5362 3122 5292C 3113 5275 3101 5261 3097 5263C 3092 5264 3075 5290 3059 5320C 3044 5350 3027 5380 3023 5385C 3019 5391 3002 5420 2986 5450C 2970 5480 2933 5545 2903 5594C 2874 5643 2850 5687 2850 5692C 2850 5696 2846 5700 2840 5700C 2835 5700 2830 5707 2830 5715C 2830 5734 2858 5734 2997 5716zM1237 5648C 1246 5632 1347 5388 1362 5343C 1368 5325 1377 5310 1382 5310C 1386 5310 1390 5305 1390 5299C 1390 5282 1443 5166 1454 5158C 1468 5148 1466 5077 1452 5072C 1445 5070 1440 5064 1440 5060C 1440 5055 1422 5012 1399 4963C 1377 4915 1353 4862 1345 4845C 1338 4829 1323 4795 1312 4770C 1301 4745 1280 4694 1265 4655C 1250 4617 1235 4582 1231 4578C 1227 4574 1200 4577 1170 4584C 1140 4592 1093 4603 1065 4610C 950 4635 883 4654 738 4701C 658 4728 493 4802 425 4843C 343 4893 277 4954 240 5015C 205 5071 205 5159 240 5215C 274 5270 348 5339 425 5387C 485 5425 657 5502 738 5529C 899 5581 953 5596 1114 5631C 1163 5641 1206 5652 1208 5655C 1217 5664 1229 5660 1237 5648zM3466 5646C 3493 5638 3533 5629 3555 5625C 3599 5618 3834 5554 3865 5540C 3876 5536 3914 5522 3950 5509C 4061 5470 4197 5402 4247 5360C 4254 5355 4263 5350 4267 5350C 4272 5350 4283 5342 4292 5333C 4301 5323 4323 5302 4340 5285C 4401 5228 4424 5181 4424 5115C 4424 5039 4392 4985 4299 4905C 4236 4850 4071 4763 3950 4721C 3914 4708 3876 4694 3865 4689C 3829 4674 3556 4600 3535 4600C 3524 4600 3493 4593 3466 4585C 3403 4566 3403 4566 3395 4593C 3392 4605 3385 4624 3380 4635C 3375 4646 3359 4684 3345 4720C 3330 4756 3309 4805 3298 4830C 3287 4855 3272 4889 3265 4905C 3257 4922 3233 4974 3211 5022C 3188 5070 3170 5112 3170 5115C 3170 5118 3188 5160 3211 5208C 3233 5256 3257 5309 3265 5325C 3272 5342 3287 5375 3298 5400C 3309 5425 3330 5474 3345 5510C 3359 5546 3375 5584 3380 5595C 3385 5606 3392 5625 3395 5638C 3402 5664 3402 5664 3466 5646zM1565 4933C 1576 4912 1605 4859 1630 4815C 1656 4771 1679 4728 1684 4720C 1688 4712 1702 4687 1716 4665C 1729 4643 1746 4613 1752 4598C 1759 4582 1767 4570 1771 4570C 1781 4570 1804 4510 1796 4503C 1793 4499 1726 4504 1647 4514C 1569 4524 1483 4534 1455 4536C 1348 4547 1343 4553 1381 4638C 1392 4664 1405 4694 1410 4705C 1429 4750 1459 4818 1484 4872C 1498 4903 1510 4933 1510 4937C 1510 4947 1531 4970 1540 4970C 1543 4970 1554 4953 1565 4933zM3122 4938C 3157 4868 3209 4754 3215 4730C 3219 4716 3229 4696 3236 4685C 3244 4674 3250 4659 3250 4650C 3250 4642 3257 4622 3265 4606C 3294 4551 3288 4547 3165 4535C 3132 4531 3056 4522 2997 4514C 2858 4496 2830 4496 2830 4515C 2830 4523 2833 4530 2838 4530C 2842 4530 2850 4540 2856 4553C 2862 4565 2899 4630 2939 4697C 2978 4764 3010 4823 3010 4829C 3010 4835 3014 4840 3019 4840C 3024 4840 3031 4849 3035 4860C 3044 4890 3091 4970 3099 4970C 3102 4970 3113 4955 3122 4938zM288 4799C 334 4760 583 4630 611 4630C 616 4630 628 4626 638 4620C 694 4588 950 4516 1163 4473C 1190 4468 1191 4465 1185 4431C 1181 4411 1175 4393 1171 4390C 1166 4387 1157 4360 1151 4330C 1144 4300 1135 4266 1130 4255C 1125 4244 1114 4206 1104 4170C 1034 3894 1011 3674 1034 3507C 1043 3448 1054 3390 1060 3379C 1083 3337 1063 3343 990 3397C 891 3472 735 3623 642 3735C 438 3978 274 4307 201 4617C 184 4692 151 4888 150 4923C 150 4928 177 4906 210 4873C 242 4841 278 4808 288 4799zM4477 4856C 4473 4815 4460 4731 4446 4668C 4341 4171 4053 3712 3649 3400C 3566 3336 3555 3337 3586 3408C 3607 3455 3616 3712 3601 3820C 3584 3945 3560 4084 3551 4105C 3546 4116 3535 4154 3526 4190C 3517 4226 3505 4273 3499 4295C 3494 4317 3483 4349 3475 4365C 3468 4382 3459 4411 3455 4431C 3449 4465 3450 4468 3477 4473C 3579 4494 3677 4518 3825 4560C 3871 4573 3976 4608 4005 4621C 4016 4625 4052 4640 4085 4654C 4147 4679 4281 4748 4290 4759C 4293 4762 4314 4778 4337 4793C 4391 4830 4470 4905 4470 4919C 4470 4925 4473 4930 4476 4930C 4480 4930 4480 4897 4477 4856zM1460 4425C 1662 4401 1766 4390 1831 4384C 1895 4379 1896 4378 1927 4332C 1954 4292 1978 4258 2062 4137C 2092 4094 2188 3971 2203 3955C 2213 3946 2225 3930 2230 3919C 2243 3896 2234 3884 2035 3685C 1881 3531 1815 3470 1800 3470C 1795 3470 1787 3464 1783 3457C 1779 3451 1755 3431 1730 3415C 1705 3399 1683 3382 1680 3379C 1669 3365 1536 3300 1480 3281C 1297 3217 1178 3296 1148 3500C 1137 3579 1144 3811 1160 3890C 1165 3915 1176 3967 1183 4005C 1214 4152 1290 4409 1313 4438C 1319 4445 1330 4448 1339 4444C 1348 4440 1402 4431 1460 4425zM3333 4418C 3350 4379 3376 4305 3395 4235C 3476 3944 3505 3760 3497 3590C 3491 3466 3470 3391 3424 3334C 3383 3283 3336 3260 3273 3260C 3228 3260 3092 3295 3080 3309C 3077 3312 3049 3328 3018 3345C 2986 3361 2960 3378 2960 3382C 2960 3386 2955 3390 2949 3390C 2940 3390 2912 3409 2852 3455C 2845 3461 2831 3472 2822 3480C 2813 3489 2781 3516 2751 3540C 2649 3624 2400 3883 2400 3906C 2400 3911 2413 3929 2428 3946C 2464 3986 2608 4181 2684 4292L2684 4292L2743 4379L2809 4384C 2845 4387 2934 4397 3005 4405C 3077 4413 3168 4423 3208 4426C 3248 4430 3283 4437 3286 4441C 3297 4460 3320 4448 3333 4418zM2590 4362C 2590 4352 2431 4134 2363 4051C 2348 4032 2334 4013 2332 4009C 2324 3989 2307 4006 2223 4118C 2175 4182 2133 4237 2130 4240C 2127 4243 2107 4272 2084 4305L2084 4305L2044 4365L2317 4365C 2467 4365 2590 4364 2590 4362zM2357 3768C 2403 3714 2601 3515 2660 3465C 2690 3439 2727 3407 2741 3395C 2831 3317 3060 3180 3102 3180C 3111 3180 3121 3176 3124 3171C 3128 3166 3154 3159 3183 3154L3183 3154L3235 3147L3182 3123C 3019 3051 2806 2993 2605 2965C 2453 2943 2094 2949 1955 2974C 1777 3007 1532 3082 1433 3133L1433 3133L1407 3147L1455 3154C 1481 3158 1510 3166 1519 3170C 1528 3175 1564 3191 1600 3206C 1636 3221 1672 3240 1681 3247C 1689 3254 1700 3260 1703 3260C 1713 3260 1811 3329 1902 3401C 1980 3462 2179 3654 2267 3753C 2290 3779 2314 3800 2319 3800C 2325 3800 2342 3785 2357 3768z" stroke="none" fill="#000000" fill-rule="nonzero" />
        <path d="M2257 5350C 2191 5333 2142 5294 2100 5224C 2068 5169 2068 5062 2101 5006C 2155 4915 2220 4876 2320 4876C 2394 4876 2443 4896 2491 4944C 2605 5058 2571 5265 2427 5333C 2384 5354 2304 5361 2257 5350z" stroke="none" fill="#000000" fill-rule="nonzero" />
        <path d="M5150 5170L5150 3700L5330 3700L5510 3700L5510 4360L5510 5020L5731 5018L5952 5015L6348 4358L6745 3700L6963 3700L7181 3700L7168 3723C 7161 3736 6976 4037 6756 4393C 6537 4748 6359 5042 6360 5047C 6361 5051 6403 5065 6454 5077C 6772 5155 6974 5334 7052 5605C 7071 5673 7074 5708 7074 5835C 7074 6017 7057 6101 6999 6220C 6967 6285 6939 6322 6881 6380C 6796 6465 6717 6513 6588 6559C 6394 6627 6237 6640 5628 6640L5628 6640L5150 6640L5150 5170zM6315 6286C 6567 6228 6700 6070 6700 5829C 6700 5669 6644 5557 6521 5476C 6377 5380 6271 5361 5843 5353L5843 5353L5510 5347L5510 5829L5510 6312L5878 6307C 6169 6304 6259 6299 6315 6286z" stroke="none" fill="#000000" fill-rule="nonzero" />
        <path d="M8001 5178C 7647 4373 7355 3712 7353 3707C 7350 3703 7440 3701 7551 3702L7551 3702L7754 3705L7904 4063L8054 4420L8788 4418L9521 4415L9668 4058L9815 3700L10023 3700C 10137 3700 10230 3701 10230 3703C 10230 3704 9950 4364 9607 5170L9607 5170L8985 6635L8815 6638L8645 6640L8001 5178zM9099 5457C 9254 5073 9380 4757 9380 4755C 9380 4752 9114 4750 8789 4750C 8231 4750 8198 4751 8203 4768C 8205 4777 8339 5096 8500 5475C 8661 5855 8795 6171 8798 6179C 8802 6190 8805 6189 8811 6174C 8815 6164 8944 5841 9099 5457z" stroke="none" fill="#000000" fill-rule="nonzero" />
        <path d="M10292 6478L10295 6315L10778 6312L11260 6310L11260 5005L11260 3700L11440 3700L11620 3700L11620 5005L11620 6310L12103 6312L12585 6315L12588 6478L12590 6640L11440 6640L10290 6640L10292 6478z" stroke="none" fill="#000000" fill-rule="nonzero" />
        <path d="M12990 5170L12990 3700L13170 3700L13350 3700L13350 5170L13350 6640L13170 6640L12990 6640L12990 5170z" stroke="none" fill="#000000" fill-rule="nonzero" />
        <path d="M14070 5170L14070 3700L14250 3700L14430 3700L14430 4360L14430 5020L15113 5022L15795 5025L15798 5188L15800 5350L15115 5350L14430 5350L14430 5830L14430 6310L15163 6312L15895 6315L15898 6478L15900 6640L14985 6640L14070 6640L14070 5170z" stroke="none" fill="#000000" fill-rule="nonzero" />
        <path d="M15993 6618C 16132 6407 17061 4986 17069 4972C 17077 4958 17080 4756 17080 4326L17080 4326L17080 3700L17255 3700L17430 3700L17430 4333L17430 4966L17975 5798C 18275 6255 18520 6632 18520 6635C 18520 6638 18424 6640 18308 6640L18308 6640L18095 6639L17677 5985C 17447 5625 17255 5330 17252 5330C 17248 5331 17063 5625 16840 5985L16840 5985L16435 6639L16206 6640L15978 6640L15993 6618z" stroke="none" fill="#000000" fill-rule="nonzero" />
	</g>
</g>
</svg>